<svg xmlns:inkscape="http://www.inkscape.org/namespaces/inkscape" xmlns:sodipodi="http://sodipodi.sourceforge.net/DTD/sodipodi-0.dtd" xmlns="http://www.w3.org/2000/svg" xmlns:svg="http://www.w3.org/2000/svg" version="1.1" x="0px" y="0px" viewBox="0 0 100 125" style="enable-background:new 0 0 100 100;" xml:space="preserve"><defs><clipPath id="b"><path d="M 4.234375,32 H 26.933594 V 52.050781 H 4.234375 Z m 0,0" clip-rule="nonzero"/></clipPath><clipPath id="a"><path d="m 28.523438,40.929688 h 5.40625 v 1.585937 h -5.40625 z m 0,0" clip-rule="nonzero"/></clipPath></defs><g transform="translate(29,6.2060552)"><path style="color:#000000;" d="m -2.8145,25.67187 c -3.2898,0.0478 -5.955,2.76602 -5.955,6.07032 v 24.10937 c 0,3.30429 2.6676,6.01273 5.955,6.06055 a 1,1 0 0 0 1.0157,-0.98633 1,1 0 0 0 -0.9864,-1.01367 c -2.2125,-0.0322 -3.9843,-1.82485 -3.9843,-4.06055 V 31.74219 c 0,-2.23571 1.7742,-4.03817 3.9843,-4.07032 a 1,1 0 0 0 0.9864,-1.01367 1,1 0 0 0 -1.0157,-0.98633 z" fill="#000000" stroke-linecap="round" stroke-linejoin="round" stroke-miterlimit="10"/><path style="color:#000000;" d="m 44.818402,25.67187 a 1,1 0 0 0 -1.0176,0.98243 1,1 0 0 0 0.9824,1.01757 c 2.223999,0.0403 3.988299,1.84413 3.988299,4.07032 v 24.10937 c 0,2.22618 -1.7618,4.02021 -3.988299,4.06055 a 1,1 0 0 0 -0.9824,1.01758 1,1 0 0 0 1.0176,0.98242 c 3.293499,-0.0597 5.953099,-2.76674 5.953099,-6.06055 V 31.74219 c 0,-3.29382 -2.6572,-6.01061 -5.953099,-6.07032 z" fill="#000000" stroke-linecap="round" stroke-linejoin="round" stroke-miterlimit="10"/><path style="color:#000000;" d="m 1.8516,19 c -3.1075,0 -5.6485,2.54099 -5.6485,5.64844 v 38.29101 c 0,3.10745 2.541,5.64844 5.6485,5.64844 h 38.298802 c 3.1074,0 5.6484,-2.54099 5.6484,-5.64844 V 24.64844 c 0,-3.10771 -2.5413,-5.64965 -5.6484,-5.64844 z m 0,2 h 38.298802 c 2.0249,-7.9e-4 3.6465,1.62215 3.6465,3.64844 v 38.29101 c 0,2.02655 -1.6219,3.64844 -3.6485,3.64844 H 1.8496 c -2.0266,0 -3.6485,-1.62189 -3.6485,-3.64844 V 24.64844 C -1.7989,22.62189 -0.177,21 1.8496,21 Z" fill="#000000" stroke-linecap="round" stroke-linejoin="round" stroke-miterlimit="10"/><path style="color:#000000;" d="m 49.877001,42.80078 a 1,1 0 0 0 -1,1 1,1 0 0 0 1,1 h 7.0839 a 1,1 0 0 0 1,-1 1,1 0 0 0 -1,-1 z" fill="#000000" stroke-linecap="round" stroke-linejoin="round" stroke-miterlimit="10"/><path style="color:#000000;" d="m 60.105501,39.64453 c -2.2736,0 -4.1407,1.87426 -4.1407,4.16016 0,2.27352 1.8671,4.14062 4.1407,4.14062 2.2859,0 4.1601,-1.8671 4.1601,-4.14062 0,-2.2859 -1.8742,-4.16016 -4.1601,-4.16016 z m 0,2 c 1.2061,0 2.1601,0.95406 2.1601,2.16016 0,1.18247 -0.954,2.14062 -2.1601,2.14062 -1.1825,0 -2.1407,-0.95815 -2.1407,-2.14062 0,-1.2061 0.9582,-2.16016 2.1407,-2.16016 z" fill="#000000" stroke-linecap="round" stroke-linejoin="round" stroke-miterlimit="10"/><path style="color:#000000;" d="m 64.839801,25.20703 c -2.2735,0 -4.1425,1.87426 -4.1425,4.16016 0,2.27352 1.869,4.14257 4.1425,4.14257 2.2859,0 4.1602,-1.86905 4.1602,-4.14257 0,-2.2859 -1.8743,-4.16016 -4.1602,-4.16016 z m 0,2 c 1.2061,0 2.1602,0.95406 2.1602,2.16016 0,1.18247 -0.9541,2.14257 -2.1602,2.14257 -1.1824,0 -2.1425,-0.9601 -2.1425,-2.14257 0,-1.2061 0.9601,-2.16016 2.1425,-2.16016 z" fill="#000000" stroke-linecap="round" stroke-linejoin="round" stroke-miterlimit="10"/><path style="color:#000000;" d="m 64.839801,54.08008 c -2.2735,0 -4.1425,1.86905 -4.1425,4.14257 0,2.2859 1.869,4.16016 4.1425,4.16016 2.2859,0 4.1602,-1.87426 4.1602,-4.16016 0,-2.27352 -1.8743,-4.14257 -4.1602,-4.14257 z m 0,2 c 1.2061,0 2.1602,0.9601 2.1602,2.14257 0,1.2061 -0.9541,2.16016 -2.1602,2.16016 -1.1824,0 -2.1425,-0.95406 -2.1425,-2.16016 0,-1.18247 0.9601,-2.14257 2.1425,-2.14257 z" fill="#000000" stroke-linecap="round" stroke-linejoin="round" stroke-miterlimit="10"/><path style="color:#000000;" d="m 49.865201,51.31836 a 1,1 0 0 0 -0.7304,0.22265 1,1 0 0 0 -0.1387,1.40625 l 4.8711,5.92383 a 1.0001,1.0001 0 0 0 0.7715,0.36524 h 7.0586 a 1,1 0 0 0 1,-1 1,1 0 0 0 -1,-1 h -6.586 l -4.5703,-5.5586 a 1,1 0 0 0 -0.6758,-0.35937 z" fill="#000000" stroke-linecap="round" stroke-linejoin="round" stroke-miterlimit="10"/><path style="color:#000000;" d="m 54.638701,28.36328 a 1.0001,1.0001 0 0 0 -0.7715,0.36523 l -4.8692,5.91016 a 1,1 0 0 0 0.1348,1.4082 1,1 0 0 0 1.4082,-0.13672 l 4.5703,-5.54687 h 6.586 a 1,1 0 0 0 1,-1 1,1 0 0 0 -1,-1 z" fill="#000000" stroke-linecap="round" stroke-linejoin="round" stroke-miterlimit="10"/><path style="color:#000000;" d="m -14.9609,42.78906 a 1,1 0 0 0 -1,1 1,1 0 0 0 1,1 h 7.0839 a 1,1 0 0 0 1,-1 1,1 0 0 0 -1,-1 z" fill="#000000" stroke-linecap="round" stroke-linejoin="round" stroke-miterlimit="10"/><path style="color:#000000;" d="m -18.1055,39.64453 c -2.2859,0 -4.1601,1.8671 -4.1601,4.14062 0,2.2859 1.8742,4.16016 4.1601,4.16016 2.2736,0 4.1407,-1.87426 4.1407,-4.16016 0,-2.27352 -1.8671,-4.14062 -4.1407,-4.14062 z m 0,2 c 1.1825,0 2.1407,0.95815 2.1407,2.14062 0,1.2061 -0.9582,2.16016 -2.1407,2.16016 -1.2061,0 -2.1601,-0.95406 -2.1601,-2.16016 0,-1.18247 0.954,-2.14062 2.1601,-2.14062 z" fill="#000000" stroke-linecap="round" stroke-linejoin="round" stroke-miterlimit="10"/><path style="color:#000000;" d="m -22.8398,54.08008 c -2.2859,0 -4.1602,1.86905 -4.1602,4.14257 0,2.2859 1.8743,4.16016 4.1602,4.16016 2.2735,0 4.1425,-1.87426 4.1425,-4.16016 0,-2.27352 -1.869,-4.14257 -4.1425,-4.14257 z m 0,2 c 1.1824,0 2.1425,0.9601 2.1425,2.14257 0,1.2061 -0.9601,2.16016 -2.1425,2.16016 -1.2061,0 -2.1602,-0.95406 -2.1602,-2.16016 0,-1.18247 0.9541,-2.14257 2.1602,-2.14257 z" fill="#000000" stroke-linecap="round" stroke-linejoin="round" stroke-miterlimit="10"/><path style="color:#000000;" d="m -22.8398,25.20703 c -2.2859,0 -4.1602,1.87426 -4.1602,4.16016 0,2.27352 1.8743,4.14257 4.1602,4.14257 2.2735,0 4.1425,-1.86905 4.1425,-4.14257 0,-2.2859 -1.869,-4.16016 -4.1425,-4.16016 z m 0,2 c 1.1824,0 2.1425,0.95406 2.1425,2.16016 0,1.18247 -0.9601,2.14257 -2.1425,2.14257 -1.2061,0 -2.1602,-0.9601 -2.1602,-2.14257 0,-1.2061 0.9541,-2.16016 2.1602,-2.16016 z" fill="#000000" stroke-linecap="round" stroke-linejoin="round" stroke-miterlimit="10"/><path style="color:#000000;" d="m -19.6973,28.35351 a 1,1 0 0 0 -1,1 1,1 0 0 0 1,1 h 6.586 l 4.5703,5.5586 a 1,1 0 0 0 1.4062,0.13672 1,1 0 0 0 0.1387,-1.40625 l -4.8711,-5.92383 a 1.0001,1.0001 0 0 0 -0.7715,-0.36524 z" fill="#000000" stroke-linecap="round" stroke-linejoin="round" stroke-miterlimit="10"/><path style="color:#000000;" d="m -7.1328,51.54297 a 1,1 0 0 0 -1.4082,0.13672 l -4.5703,5.54687 h -6.586 a 1,1 0 0 0 -1,1 1,1 0 0 0 1,1 h 7.0586 a 1.0001,1.0001 0 0 0 0.7715,-0.36523 l 4.8692,-5.91016 a 1,1 0 0 0 -0.1348,-1.4082 z" fill="#000000" stroke-linecap="round" stroke-linejoin="round" stroke-miterlimit="10"/></g><g transform="matrix(0.85138274,-0.2693739,0.26340492,0.8325172,-7.5439278,22.309703)"><g clip-path="url(#b)" transform="matrix(1.3333334,0,0,1.3333334,26.710102,-6.1771946)"><path fill="#000000" d="m 24.953125,48.222656 c 0,0.511719 -0.339844,0.765625 -0.484375,0.851563 -0.148438,0.08594 -0.539062,0.257812 -0.984375,0.01172 l -8.5625,-4.800782 V 38.13672 l 8.625,-4.066407 c 0.3125,-0.144531 0.660156,-0.125 0.949219,0.0625 0.292968,0.183594 0.457031,0.488282 0.457031,0.832032 z M 10.96875,49.589844 c 0,0.484375 -0.394531,0.878906 -0.882812,0.878906 -0.484376,0 -0.878907,-0.394531 -0.878907,-0.878906 V 45.851562 H 10.96875 Z M 6.207031,42.890625 v -3.40625 c 0,-0.542969 0.445313,-0.988281 0.988281,-0.988281 h 5.753907 v 5.382812 H 7.195312 c -0.542968,0 -0.988281,-0.445312 -0.988281,-0.988281 z M 25.554688,32.464844 c -0.863282,-0.546875 -1.925782,-0.613282 -2.847657,-0.179688 l -8.992187,4.238282 H 7.195312 c -1.632812,0 -2.960937,1.328124 -2.960937,2.960937 v 3.40625 c 0,1.632813 1.328125,2.960937 2.960937,2.960937 h 0.433594 v 3.738282 c 0,1.355468 1.101563,2.460937 2.457032,2.460937 1.359374,0 2.460937,-1.105469 2.460937,-2.460937 v -3.738282 h 1.132813 l 8.84375,4.953126 c 0.453124,0.257812 0.949218,0.382812 1.445312,0.382812 0.515625,0 1.027344,-0.136719 1.496094,-0.410156 0.917968,-0.535156 1.464844,-1.492188 1.464844,-2.554688 V 34.964844 c 0,-1.019532 -0.515626,-1.953125 -1.375,-2.5" fill-opacity="1" fill-rule="nonzero"/></g><g clip-path="url(#a)" transform="matrix(1.3333334,0,0,1.3333334,26.710102,-6.1771946)"><path fill="#000000" d="m 33.140625,40.933594 h -3.824219 c -0.433594,0 -0.789062,0.351562 -0.789062,0.789062 0,0.433594 0.355468,0.789063 0.789062,0.789063 h 3.824219 c 0.4375,0 0.789063,-0.355469 0.789063,-0.789063 0,-0.4375 -0.351563,-0.789062 -0.789063,-0.789062" fill-opacity="1" fill-rule="nonzero"/></g><path fill="#000000" d="m 69.777812,58.156145 -4.03125,-2.32813 c -0.50521,-0.29167 -1.14584,-0.11459 -1.4375,0.38542 -0.29167,0.50521 -0.11979,1.15104 0.38541,1.4375 l 4.03125,2.33333 c 0.16667,0.0937 0.34896,0.14063 0.52605,0.14063 0.36458,0 0.71874,-0.19271 0.91145,-0.52605 0.29167,-0.5052 0.11979,-1.15104 -0.38541,-1.4427" fill-opacity="1" fill-rule="nonzero" style="" stroke-width="1.33333"/><path fill="#000000" d="m 65.059062,43.218645 c 0.125,0 0.25,-0.026 0.36979,-0.0729 l 4.35937,-1.64584 c 0.54167,-0.20833 0.81771,-0.8125 0.60938,-1.35937 -0.20313,-0.54167 -0.8125,-0.81771 -1.35417,-0.60937 l -4.35937,1.64583 c -0.54167,0.20833 -0.81771,0.8125 -0.60938,1.35937 0.16146,0.42188 0.55729,0.6823 0.98438,0.6823" fill-opacity="1" fill-rule="nonzero" style="" stroke-width="1.33333"/></g><text x="0" y="115" fill="#000000" font-size="5px" font-weight="bold" font-family="'Helvetica Neue', Helvetica, Arial-Unicode, Arial, Sans-serif">Created by Soapi</text><text x="0" y="120" fill="#000000" font-size="5px" font-weight="bold" font-family="'Helvetica Neue', Helvetica, Arial-Unicode, Arial, Sans-serif">from the Noun Project</text></svg>