<svg xmlns="http://www.w3.org/2000/svg" xmlns:xlink="http://www.w3.org/1999/xlink" xmlns:serif="http://www.serif.com/" viewBox="0 0 512 640" version="1.1" xml:space="preserve" style="" x="0px" y="0px" fill-rule="evenodd" clip-rule="evenodd" stroke-linejoin="round" stroke-miterlimit="2"><g transform="matrix(1,0,0,1,0.000767208,-4)"><path d="M242,357C208.31,357 181,384.31 181,418L181,472C181,476.415 177.415,480 173,480C168.585,480 165,476.415 165,472L165,418C165,375.474 199.474,341 242,341L270.741,341C312.857,341 347,375.143 347,417.259L347,472C347,476.415 343.415,480 339,480C334.585,480 331,476.415 331,472L331,417.259C331,383.979 304.021,357 270.741,357L242,357ZM375,357C365.671,357 356.83,359.092 348.924,362.836C344.934,364.726 340.16,363.021 338.27,359.03C336.38,355.04 338.085,350.266 342.076,348.376C352.058,343.648 363.221,341 375,341L403.741,341C445.857,341 480,375.143 480,417.259L480,472C480,476.415 476.415,480 472,480C467.585,480 464,476.415 464,472L464,417.259C464,383.979 437.021,357 403.741,357L375,357ZM108,356C74.863,356 48,382.863 48,416L48,470C48,474.415 44.415,478 40,478C35.585,478 32,474.415 32,470L32,416C32,374.027 66.026,340 108,340L136.444,340C149.421,340 161.632,343.274 172.301,349.036C176.186,351.134 177.637,355.991 175.539,359.876C173.441,363.761 168.584,365.212 164.699,363.114C156.292,358.574 146.669,356 136.444,356L108,356ZM228.01,160.661C216.48,152.01 209,138.146 209,122.5C209,96.239 230.071,75 256,75C281.929,75 303,96.239 303,122.5C303,138.596 295.085,152.805 282.987,161.393C282.999,162.816 283,164.373 283,166.072C283,168.347 282.83,170.46 282.504,172.414C281.33,179.456 278.169,184.625 273.417,188.147C269.06,191.374 263.138,193.258 255.5,193.258C246.444,193.258 239.792,190.619 235.264,186.165C230.694,181.668 228,175.066 228,166.072L228,165.059C228,163.469 228,162.006 228.01,160.661ZM266.866,168.723C263.378,169.558 259.739,170 256,170C251.886,170 247.894,169.465 244.089,168.461C244.31,171.136 244.978,173.276 246.486,174.759C248.461,176.703 251.55,177.258 255.5,177.258C259.033,177.258 261.876,176.784 263.892,175.29C265.512,174.09 266.322,172.183 266.722,169.783C266.779,169.438 266.827,169.085 266.866,168.723ZM256,154C273.149,154 287,139.869 287,122.5C287,105.131 273.149,91 256,91C238.851,91 225,105.131 225,122.5C225,139.869 238.851,154 256,154ZM96.009,190.4C82.24,185.178 71.052,173.56 66.917,158.127C60.12,132.76 74.976,106.792 100.022,100.081C125.067,93.371 150.917,108.432 157.713,133.798C161.793,149.021 158.074,164.461 149.034,175.825C149.352,176.986 149.688,178.235 150.047,179.578C150.636,181.774 151.018,183.86 151.209,185.831C151.898,192.938 150.183,198.749 146.504,203.38C143.131,207.625 137.898,210.978 130.52,212.955C121.773,215.299 114.665,214.471 109.138,211.34C103.56,208.18 99.249,202.5 96.921,193.813L96.659,192.834C96.432,191.986 96.215,191.175 96.009,190.4ZM135.297,187.512C131.997,189.355 128.421,190.823 124.609,191.844C120.962,192.822 117.297,193.337 113.677,193.426C114.504,195.222 115.562,196.59 117.025,197.419C119.436,198.785 122.564,198.522 126.379,197.5C129.792,196.585 132.416,195.391 133.976,193.427C135.206,191.878 135.507,189.874 135.297,187.512ZM120.469,176.39C137.033,171.951 146.755,154.716 142.259,137.94C137.763,121.162 120.727,111.098 104.162,115.535C87.598,119.974 77.876,137.208 82.372,153.985C86.867,170.763 103.904,180.827 120.469,176.39ZM355.168,175.815C346.134,164.451 342.418,149.016 346.496,133.798C353.294,108.432 379.143,93.371 404.189,100.081C429.234,106.792 444.09,132.76 437.293,158.126C433.157,173.564 421.964,185.185 408.19,190.404C407.91,191.469 407.606,192.604 407.282,193.814C406.694,196.011 405.982,198.008 405.162,199.811C402.205,206.309 397.814,210.485 392.312,212.656C387.268,214.646 381.06,214.933 373.683,212.956C364.936,210.612 359.193,206.342 355.973,200.867C352.722,195.34 351.829,188.266 354.156,179.579L354.419,178.6C354.681,177.623 354.929,176.695 355.168,175.815ZM390.487,193.425C386.881,193.333 383.232,192.817 379.6,191.844C375.773,190.819 372.184,189.343 368.873,187.489C368.669,189.514 368.892,191.272 369.764,192.754C371.169,195.143 374.008,196.479 377.824,197.501C381.237,198.416 384.106,198.693 386.44,197.772C388.246,197.059 389.497,195.518 390.487,193.425ZM383.741,176.39C400.306,180.827 417.343,170.763 421.839,153.986C426.334,137.208 416.612,119.974 400.048,115.535C383.483,111.098 366.447,121.162 361.95,137.94C357.455,154.716 367.177,171.951 383.741,176.39ZM219,280.5C219,258.147 237.147,240 259.5,240C281.853,240 300,258.147 300,280.5L300,294.5C300,316.853 281.853,335 259.5,335C237.147,335 219,316.853 219,294.5L219,280.5ZM235,280.5L235,294.5C235,308.022 245.978,319 259.5,319C273.022,319 284,308.022 284,294.5L284,280.5C284,266.978 273.022,256 259.5,256C245.978,256 235,266.978 235,280.5ZM352,280.5C352,258.147 370.147,240 392.5,240C414.853,240 433,258.147 433,280.5L433,294.5C433,316.853 414.853,335 392.5,335C370.147,335 352,316.853 352,294.5L352,280.5ZM368,280.5L368,294.5C368,308.022 378.978,319 392.5,319C406.022,319 417,308.022 417,294.5L417,280.5C417,266.978 406.022,256 392.5,256C378.978,256 368,266.978 368,280.5ZM85,280.5C85,258.147 103.147,240 125.5,240C147.853,240 166,258.147 166,280.5L166,293.5C166,315.853 147.853,334 125.5,334C103.147,334 85,315.853 85,293.5L85,280.5ZM101,280.5L101,293.5C101,307.022 111.978,318 125.5,318C139.022,318 150,307.022 150,293.5L150,280.5C150,266.978 139.022,256 125.5,256C111.978,256 101,266.978 101,280.5ZM315,472C315,476.415 311.415,480 307,480C302.585,480 299,476.415 299,472L299,400C299,395.585 302.585,392 307,392C311.415,392 315,395.585 315,400L315,472ZM213,472C213,476.415 209.415,480 205,480C200.585,480 197,476.415 197,472L197,400C197,395.585 200.585,392 205,392C209.415,392 213,395.585 213,400L213,472ZM80,472C80,476.415 76.415,480 72,480C67.585,480 64,476.415 64,472L64,400C64,395.585 67.585,392 72,392C76.415,392 80,395.585 80,400L80,472ZM448,472C448,476.415 444.415,480 440,480C435.585,480 432,476.415 432,472L432,400C432,395.585 435.585,392 440,392C444.415,392 448,395.585 448,400L448,472ZM248,48C248,43.585 251.585,40 256,40C260.415,40 264,43.585 264,48L264,58C264,62.415 260.415,66 256,66C251.585,66 248,62.415 248,58L248,48ZM85.306,76.071C84.163,71.806 86.698,67.415 90.963,66.273C95.228,65.13 99.618,67.665 100.761,71.929L103.349,81.589C104.492,85.854 101.957,90.244 97.692,91.387C93.427,92.529 89.037,89.995 87.894,85.73L85.306,76.071ZM181,131C176.585,131 173,127.415 173,123C173,118.585 176.585,115 181,115L191,115C195.415,115 199,118.585 199,123C199,127.415 195.415,131 191,131L181,131ZM42.07,173.582C37.806,174.725 33.415,172.19 32.273,167.925C31.13,163.661 33.665,159.27 37.93,158.128L47.589,155.54C51.854,154.397 56.244,156.932 57.387,161.197C58.529,165.461 55.995,169.852 51.73,170.994L42.07,173.582ZM320,131C315.585,131 312,127.415 312,123C312,118.585 315.585,115 320,115L330,115C334.415,115 338,118.585 338,123C338,127.415 334.415,131 330,131L320,131ZM306.657,82.657C303.535,85.779 298.465,85.779 295.343,82.657C292.221,79.535 292.221,74.465 295.343,71.343L302.343,64.343C305.465,61.221 310.535,61.221 313.657,64.343C316.779,67.465 316.779,72.535 313.657,75.657L306.657,82.657ZM150.934,94.363C148.727,98.186 143.83,99.499 140.006,97.291C136.183,95.084 134.87,90.187 137.078,86.363L142.027,77.79C144.234,73.966 149.131,72.654 152.955,74.861C156.778,77.069 158.091,81.965 155.883,85.789L150.934,94.363ZM197.343,75.657C194.221,72.535 194.221,67.465 197.343,64.343C200.465,61.221 205.535,61.221 208.657,64.343L215.657,71.343C218.779,74.465 218.779,79.535 215.657,82.657C212.535,85.779 207.465,85.779 204.343,82.657L197.343,75.657ZM43.534,115.897C39.71,113.69 38.397,108.793 40.605,104.969C42.812,101.146 47.709,99.833 51.533,102.041L60.106,106.99C63.93,109.197 65.242,114.094 63.035,117.918C60.827,121.741 55.931,123.054 52.107,120.846L43.534,115.897ZM403.45,71.93C404.592,67.665 408.983,65.13 413.247,66.273C417.512,67.415 420.047,71.806 418.904,76.07L416.316,85.73C415.174,89.995 410.783,92.529 406.519,91.387C402.254,90.244 399.719,85.854 400.862,81.589L403.45,71.93ZM466.279,158.128C470.544,159.27 473.079,163.661 471.936,167.925C470.794,172.19 466.403,174.725 462.139,173.582L452.48,170.994C448.215,169.852 445.68,165.461 446.823,161.197C447.965,156.932 452.356,154.397 456.62,155.54L466.279,158.128ZM367.132,86.363C369.34,90.187 368.028,95.083 364.204,97.291C360.38,99.499 355.484,98.187 353.276,94.363L348.326,85.79C346.118,81.966 347.43,77.069 351.254,74.862C355.078,72.654 359.974,73.966 362.182,77.79L367.132,86.363ZM452.677,102.041C456.501,99.833 461.398,101.145 463.605,104.969C465.813,108.793 464.501,113.69 460.677,115.897L452.104,120.846C448.28,123.054 443.383,121.742 441.176,117.918C438.968,114.094 440.28,109.197 444.104,106.99L452.677,102.041Z"/></g><text x="0" y="527" fill="#000000" font-size="5px" font-weight="bold" font-family="'Helvetica Neue', Helvetica, Arial-Unicode, Arial, Sans-serif">Created by Yoon Ro</text><text x="0" y="532" fill="#000000" font-size="5px" font-weight="bold" font-family="'Helvetica Neue', Helvetica, Arial-Unicode, Arial, Sans-serif">from the Noun Project</text></svg>