<svg xmlns="http://www.w3.org/2000/svg" xmlns:xlink="http://www.w3.org/1999/xlink" version="1.1" x="0px" y="0px" viewBox="0 0 100 125" style="enable-background:new 0 0 100 100;" xml:space="preserve"><path d="M90.016,39.845c0.468-0.27,0.756-0.769,0.756-1.309V27.333c0-0.54-0.288-1.039-0.756-1.309l-9.702-5.602  c-0.467-0.27-1.044-0.27-1.511,0l-8.947,5.165l-8.641-4.989V10.268c0-0.54-0.288-1.039-0.756-1.309l-9.703-5.602  c-0.467-0.27-1.044-0.27-1.511,0L39.542,8.96c-0.468,0.27-0.756,0.769-0.756,1.309v10.331l-8.642,4.989l-8.947-5.166  c-0.467-0.27-1.044-0.27-1.511,0l-9.703,5.602c-0.468,0.27-0.756,0.769-0.756,1.309v11.203c0,0.54,0.288,1.039,0.756,1.309  l8.947,5.166v9.978l-8.947,5.166c-0.468,0.27-0.756,0.769-0.756,1.309v11.204c0,0.54,0.288,1.039,0.756,1.309l9.703,5.602  c0.234,0.135,0.495,0.203,0.756,0.203s0.522-0.068,0.756-0.203l8.947-5.166l8.642,4.989v10.331c0,0.54,0.288,1.039,0.756,1.309  l9.702,5.602c0.234,0.135,0.495,0.203,0.756,0.203s0.522-0.068,0.756-0.203l9.703-5.602c0.468-0.27,0.756-0.769,0.756-1.309V79.401  l8.641-4.989l8.947,5.166c0.234,0.135,0.495,0.203,0.756,0.203c0.261,0,0.522-0.068,0.756-0.203l9.702-5.602  c0.468-0.27,0.756-0.769,0.756-1.309V61.463c0-0.54-0.288-1.039-0.756-1.309l-8.947-5.166v-9.978L90.016,39.845z M79.558,65.32  l-6.68-3.857l6.68-3.857l6.68,3.857L79.558,65.32z M59.702,76.783l-8.191-4.729v-9.978l8.947-5.166  c0.468-0.27,0.756-0.769,0.756-1.309V45.271l8.641-4.989l8.191,4.729v9.978L69.1,60.155c-0.468,0.27-0.756,0.769-0.756,1.309v10.331  L59.702,76.783z M50,82.385l-6.68-3.857L50,74.671l6.68,3.857L50,82.385z M31.656,71.794V61.463c0-0.54-0.288-1.039-0.756-1.309  l-8.947-5.166v-9.978l8.191-4.729l8.642,4.989v10.331c0,0.54,0.288,1.039,0.756,1.309l8.947,5.166v9.978l-8.191,4.729L31.656,71.794  z M20.443,65.32l-6.68-3.857l6.68-3.857l6.68,3.857L20.443,65.32z M40.298,23.217l8.947,5.166c0.234,0.135,0.495,0.202,0.756,0.202  s0.522-0.068,0.756-0.202l8.947-5.166l8.641,4.989v9.459l-8.641,4.989l-8.947-5.165c-0.467-0.27-1.044-0.27-1.511,0l-8.947,5.165  l-8.641-4.989v-9.459L40.298,23.217z M48.489,16.742v7.714l-6.68-3.857v-7.714L48.489,16.742z M51.511,16.742l6.68-3.857v7.714  l-6.68,3.857V16.742z M78.047,33.807v7.714l-6.68-3.857v-7.714L78.047,33.807z M41.809,47.016l6.68,3.857v7.714l-6.68-3.857V47.016z   M50,48.255l-6.68-3.857L50,40.541l6.68,3.857L50,48.255z M51.511,50.872l6.68-3.857v7.714l-6.68,3.857V50.872z M28.634,29.951  v7.714l-6.68,3.857v-7.714L28.634,29.951z M81.069,41.521v-7.714l6.68-3.857v7.714L81.069,41.521z M79.558,23.476l6.68,3.857  l-6.68,3.857l-6.68-3.857L79.558,23.476z M50,6.411l6.68,3.857L50,14.125l-6.68-3.857L50,6.411z M20.443,23.476l6.68,3.857  l-6.68,3.857l-6.68-3.857L20.443,23.476z M12.251,29.951l6.68,3.857v7.714l-6.68-3.857V29.951z M12.251,64.08l6.68,3.857v7.714  l-6.68-3.857V64.08z M21.954,75.651v-7.714l6.68-3.857v7.714L21.954,75.651z M41.809,81.146l6.68,3.857v7.714l-6.68-3.857V81.146z   M58.192,88.859l-6.68,3.857v-7.714l6.68-3.857V88.859z M71.366,64.08l6.68,3.857v7.714l-6.68-3.857V64.08z M81.069,75.651v-7.714  l6.68-3.857v7.714L81.069,75.651z"/><text x="0" y="115" fill="#000000" font-size="5px" font-weight="bold" font-family="'Helvetica Neue', Helvetica, Arial-Unicode, Arial, Sans-serif">Created by MUHAMMAT SUKIRMAN</text><text x="0" y="120" fill="#000000" font-size="5px" font-weight="bold" font-family="'Helvetica Neue', Helvetica, Arial-Unicode, Arial, Sans-serif">from the Noun Project</text></svg>